<svg width="19" height="19" viewBox="0 0 19 19" fill="none" xmlns="http://www.w3.org/2000/svg">
<path d="M9.89701 18.968C9.36629 18.9696 8.85705 18.7585 8.48301 18.382L0.646012 10.547C0.232485 10.1349 0.0204852 9.56209 0.0660121 8.98001L0.566012 2.41401C0.637431 1.42569 1.42543 0.640682 2.41401 0.573015L8.98001 0.0730146C9.03201 0.0620131 9.08301 0.0620131 9.13501 0.0620131C9.66467 0.0613789 10.1726 0.272342 10.546 0.648015L18.383 8.48201C18.7583 8.85711 18.9691 9.36594 18.9691 9.89651C18.9691 10.4271 18.7583 10.9359 18.383 11.311L11.311 18.382C10.9368 18.7583 10.4277 18.9693 9.89701 18.968ZM5.65401 3.65401C4.74883 3.65427 3.95667 4.26245 3.72261 5.13684C3.48854 6.01123 3.87093 6.93383 4.65492 7.38626C5.43892 7.8387 6.42905 7.70817 7.06901 7.06801L7.07601 7.06201L7.08301 7.05501L7.07501 7.06201C7.64345 6.48857 7.81131 5.62957 7.50057 4.88432C7.18983 4.13907 6.46145 3.65377 5.65401 3.65401Z" fill="#2E3A59"/>
</svg>
