<svg width="20" height="19" viewBox="0 0 20 19" fill="none" xmlns="http://www.w3.org/2000/svg">
<path d="M10 18C9.355 17.428 8.626 16.833 7.855 16.2H7.845C5.13 13.98 2.053 11.468 0.694 8.45803C0.247517 7.49975 0.0109039 6.45715 -1.14822e-05 5.40003C-0.00299328 3.94951 0.578771 2.55901 1.61381 1.54279C2.64885 0.526575 4.04978 -0.0295798 5.5 2.56451e-05C6.68063 0.00189045 7.83584 0.343107 8.828 0.983026C9.26397 1.26599 9.65842 1.60828 10 2.00003C10.3435 1.60982 10.738 1.26773 11.173 0.983026C12.1647 0.34298 13.3197 0.0017442 14.5 2.56451e-05C15.9502 -0.0295798 17.3512 0.526575 18.3862 1.54279C19.4212 2.55901 20.003 3.94951 20 5.40003C19.9898 6.45884 19.7532 7.50322 19.306 8.46303C17.947 11.473 14.871 13.984 12.156 16.2L12.146 16.208C11.374 16.837 10.646 17.432 10.001 18.008L10 18ZM5.5 2.00003C4.56851 1.98837 3.67007 2.34487 3 2.99203C2.35439 3.62619 1.99355 4.49507 1.99992 5.40003C2.01133 6.17053 2.18583 6.92988 2.512 7.62803C3.15351 8.92673 4.01911 10.1021 5.069 11.1C6.06 12.1 7.2 13.068 8.186 13.882C8.459 14.107 8.737 14.334 9.015 14.561L9.19 14.704C9.457 14.922 9.733 15.148 10 15.37L10.013 15.358L10.019 15.353H10.025L10.034 15.346H10.039H10.044L10.062 15.331L10.103 15.298L10.11 15.292L10.121 15.284H10.127L10.136 15.276L10.8 14.731L10.974 14.588C11.255 14.359 11.533 14.132 11.806 13.907C12.792 13.093 13.933 12.126 14.924 11.121C15.974 10.1236 16.8397 8.94854 17.481 7.65003C17.8131 6.94583 17.9901 6.17853 18 5.40003C18.0042 4.49786 17.6435 3.63232 17 3.00003C16.3312 2.34995 15.4326 1.99051 14.5 2.00003C13.3619 1.99035 12.2739 2.46739 11.51 3.31103L10 5.05103L8.49 3.31103C7.72606 2.46739 6.63808 1.99035 5.5 2.00003Z" fill="#2E3A59"/>
</svg>
