<svg width="20" height="21" viewBox="0 0 20 21" fill="none" xmlns="http://www.w3.org/2000/svg">
<path d="M15.5 21C14.4179 21.0125 13.3923 20.5181 12.7282 19.6637C12.0641 18.8094 11.8379 17.6935 12.117 16.648L5.85697 13.07C4.77525 14.0611 3.18965 14.2708 1.88746 13.5951C0.585261 12.9194 -0.156157 11.5023 0.0313367 10.0472C0.21883 8.5922 1.2953 7.40926 2.72625 7.08577C4.15719 6.76227 5.63783 7.36714 6.43297 8.60002L12.116 5.35102C12.0424 5.07321 12.0035 4.78738 12 4.50002C11.9856 2.82674 13.1478 1.37316 14.7832 1.01884C16.4186 0.664523 18.0781 1.50676 18.7576 3.03594C19.4371 4.56511 18.95 6.36125 17.5909 7.33753C16.2319 8.31381 14.3742 8.20211 13.142 7.07002L6.99097 10.585C6.98488 10.8443 6.94863 11.1021 6.88297 11.353L13.142 14.93C14.2942 13.8726 16.0087 13.7093 17.3399 14.5303C18.671 15.3514 19.2946 16.9568 18.8668 18.461C18.439 19.9653 17.0639 21.0023 15.5 21ZM15.5 16C14.6715 16 14 16.6716 14 17.5C14 18.3284 14.6715 19 15.5 19C16.3284 19 17 18.3284 17 17.5C17 16.6716 16.3284 16 15.5 16ZM3.49997 9.00002C2.67154 9.00002 1.99997 9.67159 1.99997 10.5C1.99997 11.3284 2.67154 12 3.49997 12C4.3284 12 4.99997 11.3284 4.99997 10.5C4.99997 9.67159 4.3284 9.00002 3.49997 9.00002ZM15.5 3.00002C14.6715 3.00002 14 3.67159 14 4.50002C14 5.32845 14.6715 6.00002 15.5 6.00002C16.3284 6.00002 17 5.32845 17 4.50002C17 3.67159 16.3284 3.00002 15.5 3.00002Z" fill="#2E3A59"/>
</svg>
